<svg width="19" height="18" viewBox="0 0 19 18" fill="none" xmlns="http://www.w3.org/2000/svg">
<g clip-path="url(#clip0_2014_875)">
<path d="M12.7139 0C12.7558 0 12.7977 0 12.842 0C12.9447 1.2694 12.4602 2.21789 11.8713 2.90476C11.2935 3.58688 10.5023 4.24845 9.22267 4.14807C9.13731 2.89685 9.62262 2.01871 10.2107 1.33342C10.7561 0.69477 11.7559 0.126466 12.7139 0Z" fill="black"/>
<path d="M16.5878 13.2125C16.5878 13.2252 16.5878 13.2362 16.5878 13.2481C16.2282 14.3373 15.7152 15.2708 15.0892 16.137C14.5177 16.9235 13.8174 17.9819 12.567 17.9819C11.4865 17.9819 10.7688 17.2871 9.66147 17.2681C8.49008 17.2492 7.8459 17.8491 6.7749 18C6.65238 18 6.52987 18 6.40973 18C5.62327 17.8862 4.98857 17.2634 4.52618 16.7022C3.16272 15.0439 2.10911 12.9019 1.91309 10.1608C1.91309 9.89202 1.91309 9.62407 1.91309 9.35533C1.99608 7.39354 2.94931 5.79849 4.21634 5.02547C4.88503 4.61445 5.80427 4.2643 6.82785 4.4208C7.26653 4.48878 7.71469 4.63896 8.10753 4.78755C8.47981 4.93062 8.94536 5.18434 9.38641 5.1709C9.68518 5.16221 9.98238 5.0065 10.2835 4.89663C11.1656 4.5781 12.0303 4.21293 13.1701 4.38445C14.5399 4.59153 15.5121 5.20015 16.1128 6.13916C14.9541 6.87661 14.038 7.98792 14.1945 9.8857C14.3336 11.6096 15.3358 12.6181 16.5878 13.2125Z" fill="black"/>
</g>
<defs>
<clipPath id="clip0_2014_875">
<rect width="18" height="18" fill="white" transform="translate(0.25)"/>
</clipPath>
</defs>
</svg>
